<svg width="24" height="24" viewBox="0 0 24 24" fill="none" xmlns="http://www.w3.org/2000/svg">
<path d="M6.49175 10.8709C6.49719 10.9132 6.5 10.9563 6.5 11V16C6.5 16.0437 6.49719 16.0868 6.49175 16.1291C6.7952 16.3008 7 16.6265 7 17C7 17.5523 6.55228 18 6 18H5C4.44772 18 4 17.5523 4 17C4 16.6265 4.2048 16.3008 4.50825 16.1291C4.50281 16.0868 4.5 16.0437 4.5 16V11C4.5 10.9563 4.50281 10.9132 4.50825 10.8709C4.2048 10.6992 4 10.3735 4 10C4 9.44771 4.44772 9 5 9H6C6.55228 9 7 9.44771 7 10C7 10.3735 6.7952 10.6992 6.49175 10.8709Z" fill="#3F4E5D" fill-opacity="0.6"/>
<path d="M12.4917 10.8709C12.4972 10.9132 12.5 10.9563 12.5 11V16C12.5 16.0437 12.4972 16.0868 12.4917 16.1291C12.7952 16.3008 13 16.6265 13 17C13 17.5523 12.5523 18 12 18H11C10.4477 18 10 17.5523 10 17C10 16.6265 10.2048 16.3008 10.5083 16.1291C10.5028 16.0868 10.5 16.0437 10.5 16V11C10.5 10.9563 10.5028 10.9132 10.5083 10.8709C10.2048 10.6992 10 10.3735 10 10C10 9.44771 10.4477 9 11 9H12C12.5523 9 13 9.44771 13 10C13 10.3735 12.7952 10.6992 12.4917 10.8709Z" fill="#3F4E5D" fill-opacity="0.6"/>
<path d="M20 19C20.5523 19 21 19.4477 21 20C21 20.5523 20.5523 21 20 21H3C2.44772 21 2 20.5523 2 20C2 19.4477 2.44771 19 3 19H20Z" fill="#3F4E5D" fill-opacity="0.6"/>
<path d="M18.4917 10.8709C18.4972 10.9132 18.5 10.9563 18.5 11V16C18.5 16.0437 18.4972 16.0868 18.4917 16.1291C18.7952 16.3008 19 16.6265 19 17C19 17.5523 18.5523 18 18 18H17C16.4477 18 16 17.5523 16 17C16 16.6265 16.2048 16.3008 16.5083 16.1291C16.5028 16.0868 16.5 16.0437 16.5 16V11C16.5 10.9563 16.5028 10.9132 16.5083 10.8709C16.2048 10.6992 16 10.3735 16 10C16 9.44771 16.4477 9 17 9H18C18.5523 9 19 9.44771 19 10C19 10.3735 18.7952 10.6992 18.4917 10.8709Z" fill="#3F4E5D" fill-opacity="0.6"/>
<path fill-rule="evenodd" clip-rule="evenodd" d="M2.53425 5.71881L11.5 1L20.4657 5.71881C20.7943 5.89174 21 6.23245 21 6.60373V7C21 7.55228 20.5523 8 20 8H3C2.44772 8 2 7.55228 2 7V6.60373C2 6.23245 2.2057 5.89174 2.53425 5.71881ZM16.71 6L11.5 3.26L6.29 6H16.71Z" fill="#3F4E5D" fill-opacity="0.6"/>
</svg>
