<svg width="24" height="24" viewBox="0 0 24 24" fill="none" xmlns="http://www.w3.org/2000/svg">
<circle cx="12" cy="12" r="12" fill="#FFBA15"/>
<path d="M16.7632 13.725C16.7627 13.7249 11.4839 12.5303 11.4839 12.5303C9.91046 12.1742 8.92343 10.61 9.27939 9.03646C9.63557 7.46292 11.1998 6.4761 12.7732 6.83206C14.3468 7.18816 15.3337 8.75237 14.9777 10.3258C14.7993 11.1136 14.3181 11.7538 13.6845 12.1526C13.6844 12.1526 13.6829 12.1539 13.6823 12.1542C13.6637 12.1675 13.6516 12.1893 13.6516 12.2138C13.6516 12.2481 13.6753 12.277 13.7073 12.2847C13.7074 12.2848 16.0557 12.8158 16.0561 12.8158C16.112 12.8285 16.17 12.8069 16.2043 12.7615C16.2045 12.7611 16.2044 12.7614 16.2044 12.7614C16.8513 11.9054 17.2399 10.8373 17.2399 9.68199C17.2399 6.96127 15.1143 4.73782 12.4332 4.5799C12.4093 4.57858 12.264 4.5729 12.2149 4.5722C11.0278 4.55357 9.82418 4.89395 8.77752 5.62696C6.13434 7.47769 5.49215 11.1206 7.34269 13.7637L12.0393 20.4712C12.0594 20.4985 12.0917 20.5162 12.1279 20.5162C12.1644 20.5162 12.1968 20.4982 12.2168 20.4707C12.2168 20.4707 16.8288 13.8935 16.8292 13.8929C16.8409 13.8755 16.8479 13.8544 16.8479 13.8317C16.8479 13.7797 16.8118 13.7361 16.7632 13.725Z" fill="white"/>
</svg>
